<?xml version="1.0" standalone="no"?>
<!DOCTYPE svg PUBLIC "-//W3C//DTD SVG 20010904//EN"
 "http://www.w3.org/TR/2001/REC-SVG-20010904/DTD/svg10.dtd">
<svg version="1.0" xmlns="http://www.w3.org/2000/svg"
 width="1215.000000pt" height="1215.000000pt" viewBox="0 0 1215.000000 1215.000000"
 preserveAspectRatio="xMidYMid meet">
<metadata>
Created by potrace 1.11, written by Peter Selinger 2001-2013
</metadata>
<g transform="translate(0.000000,1215.000000) scale(0.100000,-0.100000)"
fill="#000000" stroke="none">
<path d="M5453 12138 c-4 -7 -26 -48 -48 -92 l-41 -80 -74 -11 c-42 -5 -79
-11 -83 -12 -4 -2 -14 -3 -22 -3 -29 0 -14 -27 51 -90 l66 -63 -6 -51 c-7 -59
-15 -104 -22 -128 -10 -33 18 -28 102 16 l85 45 89 -46 c49 -26 93 -44 96 -40
4 3 2 32 -5 64 -27 142 -30 130 49 206 38 37 70 71 70 76 0 5 -39 14 -87 21
-49 6 -95 15 -103 19 -8 5 -34 47 -57 94 -24 48 -45 87 -47 87 -3 0 -8 -5 -13
-12z"/>
<path d="M6593 12008 c-5 -7 -27 -48 -47 -91 -41 -85 -52 -92 -133 -101 -26
-3 -57 -8 -68 -10 -11 -3 -28 -5 -37 -5 -30 -2 -21 -17 57 -93 83 -81 78 -62
51 -211 -10 -51 -10 -70 -2 -73 7 -3 52 16 101 42 l89 46 94 -48 c101 -52 117
-51 103 6 -5 19 -12 54 -15 78 -3 24 -8 47 -11 52 -10 16 16 53 82 116 35 33
63 65 63 71 0 9 -77 24 -180 36 -20 3 -34 20 -70 90 -53 101 -63 113 -77 95z"/>
<path d="M4200 11873 c-36 -77 -52 -93 -91 -93 -16 0 -51 -5 -80 -11 l-51 -11
64 -67 65 -66 -13 -65 c-24 -118 -26 -115 66 -70 l79 40 75 -37 c42 -20 78
-34 82 -30 4 3 1 43 -6 88 l-13 81 61 60 c34 34 59 64 57 68 -4 6 -53 14 -147
25 -23 2 -20 -2 -63 83 -20 39 -40 72 -45 72 -4 0 -22 -30 -40 -67z"/>
<path d="M7634 11636 c-52 -111 -48 -108 -134 -120 -19 -3 -48 -8 -65 -11 -16
-3 -45 -7 -62 -10 -18 -3 -33 -10 -33 -15 0 -4 38 -46 84 -92 l84 -84 -9 -49
c-5 -28 -11 -61 -13 -75 -2 -14 -7 -46 -11 -72 -5 -35 -3 -48 5 -48 7 0 55 23
108 50 52 28 102 50 110 50 8 0 59 -24 113 -52 108 -58 125 -58 110 2 -5 19
-12 55 -15 80 -3 25 -9 60 -12 78 -6 31 -1 39 81 123 48 49 85 92 81 96 -4 4
-14 8 -24 10 -31 5 -106 14 -147 19 -21 2 -46 6 -55 9 -8 3 -39 52 -68 110
-28 58 -58 105 -65 105 -7 0 -36 -47 -63 -104z"/>
<path d="M3195 11425 c-20 -41 -40 -77 -43 -79 -4 -2 -29 -7 -57 -10 -85 -11
-115 -18 -115 -26 0 -5 27 -34 60 -66 53 -51 60 -62 56 -89 -12 -77 -19 -136
-17 -148 0 -4 37 11 81 34 l80 42 69 -37 c93 -49 101 -48 90 9 -25 131 -26
124 41 190 33 33 60 62 60 66 0 7 -33 14 -115 25 -27 3 -53 8 -58 11 -4 2 -23
38 -43 79 -19 41 -39 74 -44 74 -5 0 -25 -34 -45 -75z"/>
<path d="M8479 11055 c-54 -111 -57 -114 -92 -120 -12 -2 -58 -8 -103 -15 -45
-7 -87 -16 -95 -21 -10 -6 7 -28 73 -91 97 -92 94 -85 67 -208 -16 -73 -19
-109 -8 -116 6 -3 57 18 114 47 l103 53 101 -52 c55 -29 105 -52 111 -52 13 0
10 37 -11 163 l-13 78 82 81 c45 44 82 87 82 94 0 8 -11 15 -25 15 -14 1 -28
2 -32 3 -5 1 -33 6 -63 10 -78 11 -114 17 -116 19 -1 1 -25 48 -53 104 -28 56
-55 104 -60 108 -6 3 -33 -41 -62 -100z"/>
<path d="M5478 10965 c-2 -1 -70 -5 -153 -9 -82 -3 -168 -8 -190 -11 -100 -11
-142 -16 -165 -20 -14 -2 -76 -11 -138 -21 -70 -10 -121 -23 -134 -34 l-21
-17 28 -88 c34 -104 53 -125 111 -125 26 0 51 -7 64 -18 20 -16 23 -27 21 -77
-1 -32 -3 -61 -6 -64 -2 -4 5 -26 15 -49 13 -29 30 -47 55 -59 58 -28 56 -77
-8 -191 -33 -60 -37 -104 -11 -133 20 -22 57 -24 137 -4 31 7 60 14 62 14 3 1
26 1 51 1 50 0 60 8 163 129 47 57 95 86 156 96 76 12 85 15 101 39 8 14 17
52 20 84 2 33 8 71 13 84 13 34 49 68 71 68 26 0 56 42 64 89 4 28 14 46 31
57 24 16 28 16 67 -2 66 -30 153 -17 208 32 29 25 70 24 122 -2 28 -14 52 -23
55 -20 3 3 16 -6 30 -20 l24 -24 26 20 c30 23 60 25 87 5 26 -20 53 -3 64 38
5 19 18 37 33 44 31 14 70 30 89 36 11 3 8 8 -10 15 -14 5 -35 22 -47 36 -26
29 -40 32 -66 11 -11 -7 -24 -12 -30 -10 -13 5 -26 7 -187 34 -263 45 -410 59
-667 65 -73 2 -134 2 -135 1z"/>
<path d="M2386 10938 c-8 -13 -24 -44 -35 -69 -22 -50 -35 -57 -121 -65 -24
-3 -49 -9 -54 -14 -5 -5 12 -28 42 -57 28 -26 52 -55 53 -63 3 -16 -8 -102
-17 -132 -8 -27 18 -22 88 14 l61 32 68 -37 c70 -38 82 -37 74 4 -3 13 -7 41
-10 63 -3 21 -7 41 -10 45 -2 4 20 32 50 61 62 61 68 80 28 81 -16 0 -37 2
-48 4 -84 15 -79 12 -113 85 -18 39 -35 70 -37 70 -3 0 -11 -10 -19 -22z"/>
<path d="M6740 10735 c-6 -15 -17 -25 -30 -25 -23 0 -25 -9 -9 -44 8 -17 8
-33 2 -53 -12 -35 -7 -49 36 -102 22 -27 46 -44 72 -51 22 -6 39 -15 39 -21 0
-6 9 -8 21 -4 16 6 31 -3 66 -36 67 -66 93 -141 53 -152 -15 -4 -24 2 -35 24
-9 15 -25 38 -37 49 -12 11 -23 27 -24 36 -4 26 -18 35 -63 41 -37 5 -41 4
-41 -16 0 -33 -34 -27 -47 9 -10 27 -15 29 -56 28 -25 0 -50 2 -55 6 -6 4 -32
-9 -58 -29 -42 -32 -51 -35 -90 -29 -35 5 -45 3 -50 -10 -4 -10 -18 -16 -40
-16 -30 0 -34 3 -34 26 0 14 -4 23 -10 19 -5 -3 -6 -13 -3 -22 5 -13 3 -15
-13 -8 -77 33 -118 42 -145 33 -42 -15 -46 -28 -15 -53 l28 -22 -36 -36 c-20
-20 -36 -41 -36 -47 0 -6 -4 -9 -9 -5 -5 3 -12 1 -15 -3 -3 -5 -40 -8 -83 -7
-43 1 -91 -3 -108 -8 -16 -5 -36 -10 -42 -13 -21 -6 4 -48 38 -63 17 -7 43
-24 60 -38 23 -20 32 -23 44 -13 8 6 19 9 25 5 5 -3 20 1 32 9 35 25 56 20 63
-15 8 -36 -4 -49 -47 -49 -16 0 -33 -9 -42 -21 -8 -12 -30 -32 -50 -45 -45
-31 -39 -47 24 -70 27 -10 51 -23 54 -30 2 -7 -9 -30 -25 -53 -36 -48 -35 -76
4 -105 l27 -20 52 49 51 50 -27 -47 c-15 -27 -23 -48 -19 -48 14 0 70 38 128
85 31 25 61 46 68 46 40 4 65 -2 128 -31 38 -17 76 -29 84 -26 27 10 16 33
-24 51 -82 36 -105 83 -84 168 14 56 14 60 -5 80 l-20 22 42 49 c34 38 50 49
79 52 20 3 48 9 61 14 15 5 27 5 34 -2 8 -8 13 -7 18 5 9 25 28 21 53 -13 12
-17 40 -41 61 -55 22 -14 40 -32 40 -40 0 -8 7 -15 16 -15 12 0 14 -5 9 -17
-15 -35 -17 -63 -6 -63 6 0 2 -13 -10 -29 -25 -33 -19 -65 14 -83 l22 -12 -25
-6 c-17 -4 -26 -14 -28 -30 -2 -20 6 -29 40 -48 25 -13 44 -19 46 -12 5 15 22
12 22 -4 0 -8 4 -17 9 -20 4 -3 6 5 4 18 -4 17 0 26 14 30 24 8 64 48 66 68 2
7 12 23 24 35 28 28 21 54 -29 99 -34 31 -39 39 -32 62 4 15 8 40 8 56 1 36
26 49 26 13 0 -29 29 -57 58 -57 29 0 51 24 92 96 18 32 34 60 36 62 7 9 54
-33 54 -48 0 -10 7 -21 16 -24 24 -9 12 -72 -19 -96 -21 -17 -25 -27 -23 -72
1 -45 4 -53 20 -53 11 0 21 -5 23 -10 5 -16 -41 -90 -57 -90 -8 0 -23 17 -34
38 -11 21 -22 34 -24 28 -2 -6 -11 -11 -21 -11 -12 0 -23 -16 -35 -57 -21 -66
-105 -163 -140 -163 -12 0 -38 11 -58 25 -36 25 -68 33 -68 17 0 -15 -61 -31
-85 -22 -29 11 -38 1 -33 -38 3 -27 -2 -29 -34 -17 -12 5 -18 2 -18 -8 0 -22
26 -39 50 -32 13 4 22 1 26 -9 4 -10 12 -12 26 -7 19 7 79 -7 93 -21 3 -2 8
-25 11 -49 3 -24 13 -50 22 -56 24 -19 65 -16 79 6 14 23 80 33 87 14 3 -7 12
-13 19 -13 27 0 48 -35 41 -69 -6 -27 -3 -33 13 -37 24 -7 87 -169 111 -288
14 -73 14 -80 -1 -91 -21 -15 -22 -48 -2 -65 20 -17 19 -32 -5 -74 l-21 -34
38 -12 c53 -17 54 -19 41 -39 -10 -17 -14 -17 -92 4 -273 73 -367 97 -370 94
-1 -2 -23 -29 -49 -60 -53 -63 -79 -73 -141 -55 -63 19 -88 6 -124 -67 -18
-36 -43 -69 -59 -79 -87 -51 -201 -10 -178 63 4 13 27 52 51 86 73 106 84 138
64 197 -21 64 -21 64 -380 196 -191 71 -199 73 -220 64 -22 -11 -170 -228
-170 -250 0 -8 18 -38 40 -67 46 -61 78 -130 95 -202 12 -52 5 -94 -15 -96
-67 -8 -114 32 -170 145 -17 37 -37 66 -44 66 -17 0 -36 -23 -75 -90 -39 -68
-49 -84 -84 -138 -42 -63 -32 -77 61 -98 141 -31 155 -46 157 -174 2 -97 16
-137 69 -195 43 -48 45 -75 8 -124 -56 -70 -61 -124 -15 -156 15 -11 40 -32
55 -46 15 -15 44 -30 65 -34 21 -4 69 -19 108 -35 38 -15 104 -41 145 -58 41
-16 91 -33 110 -37 19 -4 44 -12 55 -19 11 -7 39 -18 63 -24 23 -7 42 -17 42
-23 0 -6 4 -8 8 -5 11 7 167 -38 195 -57 12 -8 41 -17 64 -20 23 -4 61 -15 85
-26 24 -10 58 -22 76 -25 19 -3 48 -12 65 -20 55 -24 270 -93 313 -100 56 -10
103 -40 101 -65 -1 -12 -8 -21 -17 -21 -12 0 -350 87 -410 105 -8 3 -67 21
-130 41 -63 20 -169 52 -235 71 -133 38 -265 82 -280 93 -5 4 -35 15 -66 24
-41 11 -58 22 -62 36 -5 18 -12 21 -54 19 -53 -2 -152 27 -160 47 -2 7 -10 11
-18 8 -7 -3 -19 2 -27 10 -10 9 -19 11 -25 5 -6 -6 -19 -2 -35 11 -34 27 -43
25 -67 -9 -21 -29 -27 -62 -14 -75 4 -3 8 -14 9 -24 1 -9 12 -43 24 -75 12
-32 20 -70 17 -83 -3 -17 2 -29 15 -38 14 -10 18 -21 13 -35 -4 -15 1 -24 20
-37 35 -23 56 -65 44 -86 -7 -13 -4 -23 10 -37 26 -26 34 -56 22 -79 -7 -13
-7 -22 2 -31 9 -9 9 -14 0 -19 -6 -4 -13 -14 -15 -22 -6 -27 -92 -90 -105 -77
-10 10 -93 -80 -118 -128 -21 -40 -24 -57 -19 -93 5 -35 3 -46 -11 -56 -30
-22 -9 -38 39 -31 59 10 67 16 116 90 45 66 45 66 85 61 22 -3 46 -2 53 3 8 5
29 0 53 -12 22 -11 65 -21 96 -22 31 -2 59 -8 63 -15 4 -7 12 -10 18 -6 6 3
20 -15 32 -41 41 -89 45 -96 73 -116 15 -12 48 -23 74 -25 53 -4 93 -22 122
-53 11 -12 24 -18 30 -14 6 3 11 3 11 -2 1 -4 3 -25 6 -45 4 -24 2 -38 -5 -38
-16 0 -13 -26 4 -40 8 -6 28 -13 44 -14 33 -2 74 -33 64 -49 -9 -15 -6 -67 6
-81 13 -15 -25 -58 -69 -81 -48 -25 -122 -135 -134 -199 -2 -14 -15 -40 -28
-58 -13 -18 -30 -45 -38 -60 -7 -16 -22 -28 -32 -28 -11 0 -17 -4 -14 -9 3 -4
-2 -15 -12 -24 -23 -21 -68 -31 -76 -18 -11 17 -68 13 -102 -8 l-32 -19 -51
34 c-56 38 -74 64 -73 106 0 15 -4 28 -10 28 -6 0 0 9 13 19 19 16 21 22 12
32 -10 10 -18 10 -39 0 -22 -10 -30 -9 -45 5 -19 18 -116 27 -99 10 16 -16 12
-41 -10 -66 -12 -13 -18 -30 -16 -37 8 -19 -23 -32 -54 -23 -15 4 -69 30 -121
58 -52 28 -111 53 -132 56 -33 5 -42 2 -67 -22 -17 -18 -35 -52 -45 -90 -10
-35 -21 -65 -25 -67 -4 -2 -34 0 -66 5 -32 5 -81 11 -109 15 -27 3 -61 8 -75
10 -65 9 -109 15 -155 20 -97 11 -103 14 -116 52 -9 29 -8 45 6 91 27 85 10
107 -125 157 -51 20 -57 25 -85 83 -42 87 -51 93 -64 46 -15 -58 -58 -240 -72
-307 -12 -58 -13 -59 -42 -53 -16 3 -37 6 -47 6 -15 0 -17 5 -9 38 21 95 52
229 56 252 3 14 6 43 7 65 l1 40 -57 0 c-66 0 -110 26 -132 79 -24 58 -58 76
-134 71 -37 -2 -102 -11 -145 -19 -153 -31 -217 -18 -301 62 -76 71 -156 93
-248 66 -61 -18 -112 -54 -137 -95 -15 -25 -16 -38 -8 -82 17 -91 15 -108 -12
-119 -22 -8 -33 0 -106 77 -89 93 -95 95 -201 82 -53 -6 -91 15 -134 78 -30
44 -78 75 -114 75 -9 0 -23 -11 -32 -25 -17 -25 -18 -39 -30 -220 -4 -60 -8
-123 -9 -140 -2 -16 -4 -43 -4 -58 -1 -27 -3 -28 -43 -25 l-43 3 3 105 c3 152
12 312 18 333 12 39 -101 -4 -131 -50 -26 -39 -30 -135 -11 -228 10 -44 19
-89 22 -100 2 -11 6 -31 9 -45 5 -23 1 -26 -52 -42 -78 -23 -169 -79 -250
-153 l-68 -62 35 -11 c19 -6 88 -27 153 -47 64 -19 117 -40 117 -45 0 -6 0
-11 0 -12 -2 -28 49 -139 107 -233 42 -66 78 -122 80 -125 3 -3 2 38 -2 91 -3
53 -8 128 -10 167 l-4 71 30 -11 29 -10 1 -101 c0 -102 4 -216 13 -379 3 -66
1 -88 -8 -88 -9 0 -12 15 -12 47 2 81 -20 62 -44 -39 -25 -104 -27 -191 -6
-222 8 -12 39 -47 70 -79 67 -70 70 -91 30 -205 -14 -41 -23 -85 -20 -97 3
-13 32 -47 63 -75 85 -78 92 -93 87 -184 -5 -76 -5 -77 31 -120 43 -53 51 -93
35 -170 -20 -98 15 -149 123 -178 60 -16 76 -2 88 74 10 61 21 71 98 94 31 9
62 20 68 26 15 12 29 63 37 131 4 41 49 126 66 127 3 0 12 -24 21 -53 44 -138
112 -355 150 -477 23 -74 44 -139 45 -145 7 -30 39 -116 60 -156 40 -80 89
-99 274 -105 74 -2 157 -9 183 -15 74 -17 110 -7 185 54 106 87 276 206 469
328 98 62 315 203 483 314 168 111 337 222 375 247 39 25 124 81 190 124 66
43 128 82 137 86 9 4 22 16 28 27 8 17 7 24 -10 41 -11 11 -31 20 -45 20 -13
0 -84 -33 -157 -73 -73 -41 -173 -96 -223 -122 -49 -27 -202 -111 -339 -188
-218 -122 -255 -139 -296 -140 -57 -1 -62 2 -377 234 -350 258 -609 437 -688
475 -76 37 -124 42 -190 19 -35 -12 -38 -12 -20 1 45 33 115 37 194 10 44 -16
143 -14 194 3 21 7 58 28 82 46 54 42 101 66 132 70 41 4 48 20 48 111 l0 86
-115 50 c-63 28 -117 53 -120 55 -7 6 52 52 75 58 11 3 45 -5 75 -18 30 -13
76 -27 103 -31 28 -4 55 -16 67 -28 30 -33 191 -98 212 -87 36 20 31 -27 -9
-77 -51 -64 -80 -134 -55 -134 15 0 229 146 309 211 43 35 118 98 166 142 49
43 101 83 115 88 26 10 166 -11 370 -55 l53 -11 -43 -51 c-24 -28 -70 -85
-103 -128 -32 -42 -76 -88 -96 -102 -26 -18 -39 -35 -43 -58 -4 -19 -20 -52
-37 -75 -50 -70 -89 -151 -72 -151 14 0 220 143 303 210 52 43 117 90 143 105
43 24 50 26 63 13 20 -20 10 -40 -32 -63 -43 -23 -84 -70 -84 -95 0 -28 46
-58 240 -156 96 -48 236 -120 310 -159 393 -209 388 -206 420 -185 12 8 5 19
-40 61 -49 46 -186 172 -280 259 -19 17 -91 84 -159 148 -68 65 -144 131 -170
148 -53 37 -139 65 -176 58 -14 -2 -25 0 -25 7 0 15 53 90 90 126 44 43 75 47
137 17 42 -20 324 -247 608 -489 28 -24 108 -92 179 -153 179 -153 210 -159
356 -75 154 88 457 292 635 426 112 84 314 244 325 256 3 4 49 44 104 91 93
80 127 124 109 141 -4 4 -28 10 -53 13 -25 4 -63 9 -85 12 -22 3 -102 16 -177
28 -221 36 -260 28 -418 -88 -132 -97 -266 -183 -351 -226 -89 -45 -262 -107
-322 -115 -23 -4 -58 -9 -77 -13 -49 -11 -161 3 -213 26 -163 72 -271 316
-209 473 13 33 19 38 59 44 25 3 54 8 65 10 14 3 17 1 10 -8 -21 -27 -40 -108
-37 -164 4 -121 106 -262 214 -298 126 -42 335 22 535 163 48 34 201 158 290
235 50 43 44 60 -31 93 -114 50 -112 48 -67 54 22 3 62 -2 94 -11 35 -11 78
-16 116 -13 52 3 67 9 99 36 20 18 44 46 52 63 18 34 20 126 3 170 -11 29 -9
32 37 73 110 97 173 122 219 87 50 -38 106 -2 138 90 9 24 24 65 32 89 21 57
66 112 115 137 95 48 141 130 154 274 4 38 8 76 10 85 2 8 6 44 10 80 9 85 22
146 40 180 22 43 78 86 137 105 95 31 122 71 133 205 4 45 13 98 21 117 16 36
59 68 108 79 70 15 102 58 111 146 14 129 30 171 87 224 55 53 95 68 173 69
79 0 135 -21 161 -60 13 -19 14 -39 9 -97 -8 -86 -8 -76 -6 -110 1 -36 45 -85
82 -93 37 -8 69 -41 69 -73 0 -13 -10 -46 -21 -73 -18 -40 -20 -55 -11 -74 32
-70 219 -21 257 68 16 38 6 85 -39 174 -50 101 -65 168 -60 273 6 103 -3 127
-81 239 -63 89 -75 140 -62 267 6 63 -12 106 -74 184 -60 74 -98 136 -154 250
-67 139 -75 145 -189 146 -51 1 -103 7 -114 13 -31 17 -66 68 -92 136 -43 113
-94 155 -187 157 -56 0 -70 7 -143 63 -84 64 -94 68 -135 51 -19 -8 -35 -19
-35 -23 0 -19 -53 -63 -75 -63 -26 0 -29 3 -38 40 -5 20 3 38 35 80 27 36 41
65 42 89 2 36 -25 106 -40 106 -5 0 -8 5 -6 12 1 7 -6 18 -18 25 -26 17 -25
46 4 81 l22 28 28 -28 c21 -21 26 -34 22 -55 -7 -36 2 -58 24 -58 22 0 54 -35
47 -53 -9 -23 13 -38 35 -26 11 6 26 8 33 5 25 -9 27 13 5 41 -18 24 -21 35
-15 84 8 64 6 67 -85 129 -31 21 -75 57 -96 79 -21 23 -45 41 -54 41 -9 0 -33
-16 -53 -35 -20 -19 -41 -35 -47 -35 -5 0 -25 14 -43 30 -42 36 -57 37 -95 5
-47 -40 -58 -32 -68 50 -7 57 -11 65 -32 65 -29 0 -38 -19 -37 -77 1 -50 0
-53 -25 -53 -14 0 -30 -4 -37 -8 -15 -10 -45 -80 -39 -91 3 -4 7 -20 10 -36 7
-39 13 -43 105 -75 109 -38 156 -66 185 -111 28 -42 90 -84 112 -75 23 9 57
-28 49 -53 -3 -11 -1 -30 5 -42 9 -15 9 -24 1 -32 -8 -8 -11 -8 -11 1 0 16
-53 42 -85 42 -18 0 -25 5 -25 20 0 27 -18 25 -46 -5 -29 -32 -36 -31 -75 4
-26 24 -30 33 -20 44 6 8 8 23 4 33 -9 26 -54 79 -67 80 -6 0 -22 6 -37 11
-14 7 -42 8 -65 4 -23 -4 -52 -6 -65 -4 -28 4 -68 47 -75 84 -6 25 -7 26 -50
17 -36 -8 -49 -7 -67 6 -111 78 -103 67 -98 143 1 25 64 73 96 73 18 0 20 7
21 55 0 31 5 60 11 66 12 12 83 2 83 -12 0 -8 -41 -34 -50 -31 -5 2 -5 -4 -1
-28 2 -19 27 -10 59 23 33 34 62 93 62 127 0 19 -5 22 -40 24 -8 1 -16 7 -16
14 -1 6 -2 17 -3 22 0 6 -21 10 -45 10 -38 0 -44 -3 -41 -18 7 -37 -10 -43
-45 -17 -19 14 -40 25 -47 25 -18 0 -16 13 8 59 23 44 20 62 -16 106 -23 27
-27 29 -47 16 -12 -7 -34 -17 -50 -22 -24 -7 -28 -5 -28 13 0 15 -5 19 -18 16
-10 -3 -19 0 -20 6 -2 23 -8 47 -13 47 -2 0 -17 -5 -33 -11 -37 -14 -60 -9
-64 13 -2 11 3 17 17 17 11 0 22 9 26 20 5 16 12 18 48 14 23 -3 47 -12 53
-20 14 -18 28 -18 43 0 17 20 3 44 -35 62 -19 9 -32 20 -29 24 3 4 -2 13 -10
20 -12 10 -18 10 -30 0 -10 -8 -30 -10 -61 -5 -56 8 -84 24 -84 47 0 20 -17
33 -22 16 -6 -17 -28 0 -39 30 -7 18 -6 27 2 33 19 11 -8 39 -37 39 -23 0 -97
56 -90 69 6 10 -13 51 -24 51 -6 0 -15 -11 -20 -25z m259 -4970 c17 -36 31
-70 31 -76 0 -17 -52 24 -81 64 l-28 39 22 19 c12 10 23 18 23 19 1 0 16 -29
33 -65z m-2795 -366 c-2 -57 -3 -59 -28 -59 -14 0 -28 -4 -31 -10 -14 -23 -26
-8 -21 28 3 20 5 42 6 48 0 13 39 32 60 29 10 -1 15 -13 14 -36z m-667 -39
c122 -38 132 -40 160 -29 25 9 83 -7 83 -23 0 -8 -19 -40 -46 -76 -1 -2 -15 3
-31 12 -15 8 -99 49 -185 90 -153 73 -198 99 -120 71 20 -8 83 -28 139 -45z
m1095 -9 c4 -3 -16 -35 -43 -71 -48 -61 -51 -63 -44 -31 8 40 9 107 1 120 -6
9 74 -7 86 -18z m-167 -231 c-10 -11 -22 -20 -28 -20 -5 0 1 9 14 20 31 25 37
25 14 0z"/>
<path d="M4330 10659 c-143 -18 -160 -27 -160 -83 0 -43 32 -83 84 -107 76
-34 122 -19 113 38 -7 46 9 72 58 94 30 13 45 26 45 38 0 32 -22 35 -140 20z"/>
<path d="M7310 10429 c-8 -15 -8 -24 0 -34 8 -9 8 -20 2 -32 -21 -41 22 -119
59 -108 12 4 22 -1 29 -15 10 -20 13 -20 28 -7 9 9 29 18 43 22 15 4 32 17 39
30 11 20 10 26 -4 40 -9 9 -16 29 -16 45 0 42 -51 77 -117 78 -43 1 -54 -2
-63 -19z"/>
<path d="M3438 10400 c-27 -17 -50 -30 -54 -30 -12 0 -270 -174 -367 -247
-205 -155 -523 -444 -511 -464 7 -12 76 0 108 19 16 9 37 32 46 49 28 54 39
63 63 54 28 -10 35 -43 25 -110 -11 -71 -28 -105 -83 -166 -66 -73 -72 -127
-17 -142 77 -20 182 0 226 44 27 26 28 61 6 104 -22 40 -1 72 66 104 83 39 90
92 13 93 -49 1 -55 5 -43 31 8 17 97 91 109 91 3 0 21 14 40 32 40 35 44 66
15 93 -11 10 -20 21 -20 25 0 9 89 67 154 100 26 14 67 41 89 61 23 20 66 44
94 53 85 28 112 66 108 151 -5 102 0 97 -67 55z"/>
<path d="M9316 10190 c-32 -66 -63 -120 -69 -121 -7 0 -21 -2 -32 -4 -32 -5
-199 -29 -209 -29 -27 -2 -8 -30 73 -109 49 -48 91 -94 94 -101 4 -11 2 -33
-18 -136 -14 -70 -17 -130 -8 -130 6 0 62 27 124 59 l113 60 115 -60 c63 -32
119 -59 124 -59 9 0 5 63 -7 125 -11 59 -20 112 -20 128 0 10 42 60 93 112 52
53 91 98 87 102 -3 4 -14 8 -24 9 -43 6 -180 26 -207 30 -16 3 -31 8 -33 12
-36 77 -120 227 -127 229 -6 2 -37 -51 -69 -117z"/>
<path d="M1819 10195 c-18 -36 -40 -67 -48 -69 -26 -8 -95 -18 -113 -18 -36 1
-28 -22 26 -75 37 -35 55 -60 52 -71 -13 -50 -22 -117 -17 -137 1 -2 33 12 72
32 l71 36 68 -37 c75 -40 86 -36 70 26 -24 90 -23 95 38 154 44 42 54 57 43
63 -14 9 -118 26 -133 23 -4 -1 -24 30 -43 68 -19 39 -40 70 -45 70 -5 0 -24
-29 -41 -65z"/>
<path d="M7713 10178 c-37 -18 -29 -53 19 -88 22 -16 49 -30 59 -30 10 0 26
-11 36 -23 41 -52 67 -54 136 -8 l39 25 -23 17 c-12 9 -30 14 -40 12 -19 -5
-89 32 -89 47 0 14 -59 52 -88 55 -15 2 -37 -1 -49 -7z"/>
<path d="M5840 9733 c-23 -9 -36 -25 -66 -82 -44 -80 -60 -92 -111 -78 -36 9
-45 8 -61 -6 -24 -21 -77 -151 -69 -169 2 -8 47 -30 98 -50 52 -19 102 -39
111 -43 19 -8 48 18 103 89 17 21 36 45 42 52 24 23 31 61 31 143 -1 67 -5 89
-22 114 -23 33 -33 38 -56 30z"/>
<path d="M6323 9680 c-15 -9 -39 -30 -53 -45 -34 -36 -72 -55 -114 -55 -42 0
-66 -22 -66 -60 0 -73 -38 -109 -94 -90 -47 15 -76 1 -119 -58 -53 -74 -53
-95 1 -117 135 -57 321 -118 356 -116 72 4 128 48 132 106 4 51 19 72 75 106
66 41 69 69 15 151 -33 51 -45 81 -63 157 -10 40 -30 46 -70 21z"/>
<path d="M1315 9605 c-26 -55 -35 -66 -65 -75 -19 -5 -48 -10 -63 -10 -16 0
-38 -5 -49 -11 -20 -11 -18 -14 37 -65 l58 -54 -13 -75 c-7 -42 -10 -78 -7
-81 3 -4 32 8 63 25 32 17 67 31 79 31 12 0 47 -14 79 -31 31 -17 60 -29 62
-26 3 3 0 40 -7 82 l-12 76 52 48 c47 43 62 69 44 72 -5 1 -21 3 -38 5 -16 2
-39 6 -50 8 -11 2 -28 5 -37 5 -11 1 -29 25 -50 68 -18 36 -37 68 -43 70 -5 2
-23 -26 -40 -62z"/>
<path d="M2277 9409 c-289 -352 -513 -747 -687 -1211 -27 -71 -47 -128 -45
-128 1 0 32 13 68 30 99 45 119 31 162 -115 10 -33 28 -71 41 -85 21 -21 32
-24 88 -23 90 3 205 44 301 108 131 87 129 83 124 231 -2 86 11 110 108 193
88 75 118 167 97 301 -34 220 -34 266 1 325 14 25 29 45 33 45 4 0 18 16 31
35 31 46 24 78 -31 151 -34 46 -43 65 -44 104 -3 66 -17 88 -70 111 -89 37
-86 38 -177 -72z"/>
<path d="M5183 9431 c-48 -30 -93 -102 -93 -149 0 -36 3 -41 31 -51 18 -6 42
-11 54 -11 61 0 135 -61 135 -112 0 -9 11 -28 23 -42 33 -35 152 -90 180 -82
12 3 41 33 66 70 24 36 51 73 60 83 26 29 51 71 51 86 0 22 -30 43 -100 71
-36 15 -74 31 -85 36 -48 22 -282 120 -286 120 -2 0 -18 -9 -36 -19z"/>
<path d="M10022 9377 c-7 -8 -43 -78 -82 -155 -74 -149 -70 -146 -150 -156
-49 -6 -192 -28 -210 -31 -8 -2 -23 -4 -32 -4 -35 -2 -16 -29 101 -145 77 -76
118 -123 115 -134 -9 -44 -38 -220 -40 -247 -1 -16 -5 -38 -9 -47 -16 -39 28
-27 169 46 l146 75 154 -80 c118 -61 155 -76 159 -65 3 8 -5 75 -18 148 -14
73 -25 146 -25 163 0 25 20 50 117 147 117 118 126 133 77 142 -10 2 -46 7
-79 10 -33 4 -67 9 -75 11 -8 2 -37 6 -65 10 -27 3 -58 8 -68 11 -12 4 -44 59
-87 147 -85 174 -83 172 -98 154z"/>
<path d="M4975 9153 c-61 -18 -101 -46 -118 -81 -28 -57 -2 -79 68 -58 25 8
53 13 63 11 9 -2 22 -4 28 -4 7 -1 19 -19 28 -41 17 -44 40 -59 64 -43 17 10
62 133 62 169 0 49 -103 73 -195 47z"/>
<path d="M988 8999 c-8 -13 -23 -42 -34 -64 -19 -38 -23 -41 -81 -50 -34 -5
-65 -13 -69 -17 -4 -4 15 -27 41 -51 52 -48 51 -43 29 -160 -2 -15 -1 -27 3
-27 5 0 34 14 65 30 l58 30 60 -30 c32 -16 62 -30 65 -30 4 0 4 12 1 28 -20
119 -22 105 29 155 26 25 44 50 41 55 -3 6 -33 13 -66 17 l-61 7 -33 66 c-33
65 -33 66 -48 41z"/>
<path d="M6903 8933 c-18 -7 -16 -40 3 -47 44 -17 101 8 72 31 -17 13 -60 22
-75 16z"/>
<path d="M5381 8906 c-8 -10 -9 -22 -1 -42 6 -16 13 -35 15 -42 3 -9 13 -5 30
14 30 32 31 45 7 67 -23 21 -36 21 -51 3z"/>
<path d="M7020 8870 c0 -5 5 -10 10 -10 6 0 10 5 10 10 0 6 -4 10 -10 10 -5 0
-10 -4 -10 -10z"/>
<path d="M5198 8773 c-50 -12 -20 -150 40 -182 16 -9 24 -3 51 38 36 56 38 72
14 93 -34 28 -88 55 -105 51z"/>
<path d="M770 8410 c-17 -34 -36 -63 -43 -65 -10 -3 -80 -13 -109 -14 -18 -2
-5 -25 37 -69 25 -26 43 -52 40 -60 -3 -8 -8 -38 -11 -68 l-7 -55 65 32 64 31
62 -31 62 -31 0 32 c0 18 -4 49 -9 70 -8 35 -6 38 40 84 27 27 49 51 49 55 0
4 -25 10 -57 14 -79 10 -82 11 -109 71 -13 29 -28 56 -34 59 -5 3 -23 -22 -40
-55z"/>
<path d="M629 7768 l-32 -66 -55 -7 c-88 -11 -88 -12 -32 -71 28 -30 49 -57
46 -62 -2 -4 -7 -27 -11 -52 -4 -25 -9 -48 -11 -52 -10 -15 18 -19 40 -5 13 9
39 22 59 30 34 15 38 14 92 -15 31 -16 59 -27 62 -24 3 3 1 34 -5 68 l-10 63
51 52 c36 37 46 54 36 57 -18 7 -67 14 -100 15 -20 1 -30 10 -43 40 -10 21
-26 51 -36 66 l-19 28 -32 -65z"/>
<path d="M10568 7445 c-2 -1 -30 -5 -64 -8 -155 -15 -359 -86 -609 -212 -192
-98 -582 -314 -695 -385 -8 -6 -85 -52 -170 -103 -156 -94 -306 -189 -520
-327 -187 -121 -933 -621 -952 -638 -24 -20 -23 -49 1 -62 17 -8 44 6 170 88
329 213 848 547 996 640 61 38 189 120 285 181 96 61 191 120 210 131 19 11
69 41 110 67 515 316 1146 578 1315 545 14 -2 22 -8 20 -13 -3 -4 -97 -69
-210 -145 -118 -78 -207 -145 -211 -156 -9 -31 15 -68 45 -68 14 0 117 42 230
94 430 198 502 221 668 219 39 -1 98 -7 130 -14 32 -7 60 -13 63 -14 22 -5 80
-30 80 -36 0 -3 -30 -14 -67 -24 -212 -56 -698 -235 -928 -340 -326 -149 -711
-356 -970 -522 -60 -39 -135 -83 -165 -98 -61 -31 -200 -132 -200 -146 0 -25
121 21 219 84 65 42 111 66 366 187 72 35 195 94 275 133 80 38 172 82 205 97
33 15 96 45 140 66 44 21 82 38 85 39 3 1 21 8 40 17 330 148 629 255 910 323
157 38 182 40 210 17 20 -17 24 -28 24 -79 -1 -77 -20 -146 -50 -174 -17 -16
-38 -22 -86 -25 -197 -12 -354 -58 -613 -179 -125 -59 -782 -387 -890 -445
-44 -23 -111 -59 -150 -80 -92 -49 -312 -169 -350 -190 -16 -9 -57 -32 -90
-50 -33 -18 -76 -42 -95 -53 -19 -11 -55 -31 -80 -45 -601 -334 -1546 -920
-2405 -1493 -506 -337 -616 -414 -910 -632 -108 -81 -342 -273 -462 -381 -143
-128 -180 -174 -204 -253 -21 -72 23 -54 -569 -238 -266 -83 -536 -165 -655
-200 -79 -24 -119 -34 -188 -51 -9 -2 -27 -6 -40 -10 -144 -35 -404 -39 -460
-7 -58 34 -48 80 44 195 38 48 47 64 35 66 -24 5 -97 -33 -136 -70 -35 -35
-100 -162 -100 -198 0 -33 56 -78 125 -100 54 -18 171 -20 218 -4 109 38 295
56 407 39 201 -29 428 -140 687 -337 106 -80 171 -104 268 -99 88 4 221 60
242 101 10 20 7 33 -23 89 -19 36 -39 73 -44 81 -11 18 -121 216 -175 313 -20
38 -35 70 -33 72 1 1 73 24 158 50 327 99 526 171 785 282 153 66 517 243 680
331 138 74 266 143 305 165 19 11 96 53 170 95 74 41 160 88 190 105 267 150
332 181 408 194 56 9 133 10 172 2 19 -4 46 -10 60 -13 37 -7 54 -12 185 -52
66 -20 149 -45 185 -55 119 -36 157 -39 193 -15 36 24 100 146 95 180 -2 13
-14 24 -33 30 -80 24 -325 112 -325 116 0 5 102 34 330 95 40 11 271 55 315
60 28 3 61 8 73 11 29 6 25 -1 -43 -81 -73 -85 -184 -236 -253 -346 -75 -121
-145 -249 -139 -255 9 -10 84 23 128 57 26 20 73 63 105 96 56 56 124 96 124
71 0 -24 -32 -75 -58 -90 -34 -21 -82 -66 -82 -77 0 -10 79 -46 125 -57 37 -9
75 -33 75 -47 0 -6 -9 -30 -21 -54 -11 -23 -18 -47 -15 -52 9 -13 59 5 88 32
69 64 114 73 140 29 21 -34 83 -69 143 -78 59 -8 71 -29 44 -75 -46 -80 -53
-99 -42 -110 8 -8 36 6 99 49 49 32 109 72 134 87 25 16 70 52 100 80 81 76
110 93 151 90 52 -3 112 -42 204 -132 44 -43 97 -91 118 -108 27 -21 39 -39
40 -60 2 -27 -1 -30 -23 -27 -14 1 -84 32 -157 68 -150 74 -211 89 -288 69
-27 -8 -63 -20 -79 -28 l-28 -15 23 -15 c13 -9 130 -79 259 -158 391 -236 433
-252 531 -207 57 27 239 173 265 214 9 13 13 32 9 43 -5 16 -63 94 -158 211
-37 45 -111 146 -169 230 -87 125 -156 194 -215 214 -57 20 -123 20 -183 2
-122 -37 -308 54 -374 182 -43 83 -50 185 -21 317 2 6 17 33 34 61 77 124 57
228 -79 411 -75 100 -76 122 -10 169 25 18 268 166 540 329 712 428 993 609
1222 788 301 234 547 488 637 657 78 146 98 314 52 433 -43 110 -132 194 -245
231 -45 15 -100 20 -336 31 -92 4 -119 8 -265 40 -59 14 -297 29 -307 20z"/>
<path d="M560 7121 c-16 -33 -33 -62 -37 -64 -5 -3 -33 -8 -63 -11 -30 -4 -58
-10 -62 -14 -4 -4 14 -29 40 -55 l48 -47 -10 -65 c-5 -36 -6 -68 -3 -71 4 -4
24 4 44 18 63 41 76 42 140 9 32 -17 61 -31 64 -31 3 0 0 30 -7 68 l-13 67 51
51 c27 29 46 54 40 58 -5 3 -34 8 -63 12 -30 3 -57 8 -62 11 -4 2 -21 31 -37
64 -17 32 -32 59 -35 59 -3 0 -18 -27 -35 -59z"/>
<path d="M4680 6712 c-43 -15 -39 -63 12 -129 62 -81 130 -138 167 -141 41 -3
40 14 -5 67 -42 48 -46 82 -15 115 41 44 24 71 -54 81 -27 3 -59 8 -70 10 -11
1 -27 0 -35 -3z"/>
<path d="M5016 6608 c-22 -12 -20 -56 4 -95 36 -60 90 -80 155 -57 55 19 80
17 125 -8 36 -21 42 -22 100 -10 73 16 83 10 99 -53 12 -49 24 -56 41 -25 6
11 15 18 21 15 12 -8 12 8 -1 21 -6 6 -11 32 -12 57 0 37 -5 48 -20 53 -10 3
-18 13 -17 22 3 32 -1 35 -21 17 -15 -13 -30 -16 -65 -13 -25 3 -48 2 -51 -3
-11 -18 -125 6 -250 53 -64 24 -97 32 -108 26z"/>
<path d="M589 6529 c-28 -61 -47 -75 -113 -83 -27 -3 -51 -8 -54 -11 -3 -3 16
-27 42 -54 52 -52 50 -46 29 -160 -3 -19 -2 -32 3 -29 5 2 36 17 68 33 l59 28
58 -31 c32 -17 60 -28 62 -24 3 4 0 36 -5 71 l-10 64 48 48 c26 27 46 51 43
54 -3 2 -23 7 -45 10 -90 13 -89 13 -119 75 -16 33 -32 60 -35 60 -4 0 -17
-23 -31 -51z"/>
<path d="M5560 6520 c0 -5 7 -10 16 -10 8 0 12 5 9 10 -3 6 -10 10 -16 10 -5
0 -9 -4 -9 -10z"/>
<path d="M5656 6265 c6 -15 3 -17 -19 -11 -30 7 -48 -12 -23 -26 18 -10 22
-48 4 -48 -9 0 -9 -3 0 -12 7 -7 12 -28 12 -47 1 -40 18 -70 38 -63 7 2 27 -5
45 -15 46 -27 77 -34 83 -18 3 7 18 18 34 25 25 10 27 15 20 39 -4 15 -4 35 1
44 7 12 3 19 -17 30 -17 9 -23 17 -15 21 6 4 11 14 11 22 0 17 -27 19 -32 2
-6 -17 -48 22 -48 45 0 15 -5 17 -35 11 -23 -4 -41 -2 -50 6 -13 11 -14 10 -9
-5z"/>
<path d="M698 5893 c-27 -54 -36 -60 -102 -68 l-49 -7 43 -43 42 -43 -6 -61
c-4 -34 -4 -61 -1 -61 3 0 27 11 53 25 l48 25 52 -25 c29 -14 54 -25 57 -25 5
0 1 33 -10 90 -4 20 3 34 35 65 22 21 40 42 40 46 0 4 -19 10 -42 14 -70 11
-74 13 -98 65 -13 28 -27 50 -31 50 -4 0 -18 -21 -31 -47z"/>
<path d="M871 5290 c-13 -28 -28 -51 -35 -52 -53 -7 -106 -19 -106 -24 0 -3
18 -22 40 -44 43 -42 44 -45 30 -104 -5 -22 -7 -43 -4 -48 3 -4 28 4 57 18 50
26 52 26 82 9 16 -9 41 -21 54 -26 l23 -9 -6 63 -7 63 42 39 c42 38 42 39 18
46 -13 4 -41 10 -62 14 -32 5 -40 12 -62 55 -14 28 -29 50 -33 50 -4 0 -18
-23 -31 -50z"/>
<path d="M4847 5150 c-34 -10 -103 -62 -135 -101 l-23 -28 38 -20 c21 -10 64
-26 94 -35 121 -36 254 -49 209 -21 -17 11 -11 24 30 66 71 73 65 93 -36 128
-62 22 -128 26 -177 11z"/>
<path d="M4142 5010 c-13 -21 -16 -87 -6 -114 13 -34 103 -6 152 47 25 27 25
28 -44 65 -52 27 -85 28 -102 2z"/>
<path d="M10145 4861 c-32 -9 -79 -41 -97 -66 -39 -53 -23 -221 32 -323 17
-31 53 -81 80 -111 46 -49 62 -81 41 -81 -17 0 -128 115 -154 160 -36 63 -55
142 -53 226 l2 71 -36 -16 c-168 -76 -359 -209 -470 -328 -78 -84 -88 -102
-97 -178 -25 -192 21 -288 167 -350 53 -23 65 -24 148 -10 60 10 145 41 222
81 84 43 356 239 372 268 6 10 2 22 -12 36 -11 11 -19 20 -17 21 1 1 22 2 47
4 75 5 132 25 162 57 15 17 29 38 29 47 9 106 -3 178 -45 268 -41 85 -97 143
-181 185 -68 35 -111 47 -140 39z"/>
<path d="M2155 3361 c-33 -9 -82 -27 -108 -40 -51 -25 -170 -101 -165 -106 3
-3 423 -119 633 -175 44 -12 105 -28 135 -37 30 -8 69 -18 85 -23 17 -4 165
-44 330 -88 165 -45 315 -84 333 -87 47 -8 106 11 165 52 28 20 87 61 132 92
351 243 371 258 365 265 -13 13 -131 37 -205 41 -44 3 -98 7 -120 10 -22 2
-76 7 -120 10 -44 3 -102 7 -130 10 -27 2 -86 7 -130 10 -44 3 -107 8 -140 11
-101 8 -167 13 -250 19 -85 6 -137 10 -250 20 -38 3 -92 8 -120 10 -27 2 -86
7 -130 11 -164 13 -249 12 -310 -5z"/>
<path d="M9865 1445 l0 -565 72 0 72 0 0 565 -1 565 -71 0 -72 0 0 -565z"/>
<path d="M589 1936 c-1 -6 -2 -246 -3 -533 l-1 -523 71 0 72 0 0 216 c1 119 3
218 4 220 2 2 62 4 132 5 150 2 201 10 270 43 105 48 159 134 163 255 5 163
-87 278 -247 312 -72 15 -460 19 -461 5z m452 -124 c75 -30 112 -94 111 -189
0 -68 -31 -123 -86 -154 -37 -21 -56 -24 -188 -27 l-148 -4 -1 46 c0 25 -1 62
-1 81 0 19 1 87 1 150 l1 114 143 -3 c78 -2 154 -8 168 -14z"/>
<path d="M5420 1888 c0 -48 3 -58 18 -59 9 -1 74 -1 145 -1 l127 0 0 -52 c1
-28 1 -241 1 -473 l0 -423 70 0 69 0 0 43 c1 23 2 236 3 472 l2 430 125 2 c69
1 134 2 145 2 18 1 21 7 19 51 0 28 -4 54 -8 58 -4 4 -167 7 -362 7 l-354 0 0
-57z"/>
<path d="M1787 1714 c-31 -10 -65 -32 -97 -62 -48 -47 -65 -48 -53 -3 3 11 2
32 -1 46 -6 25 -9 25 -74 23 l-67 -3 0 -417 -1 -418 72 0 71 0 0 253 c0 289 9
340 65 393 42 39 79 54 148 57 l55 4 2 71 3 72 -38 -1 c-20 0 -59 -7 -85 -15z"/>
<path d="M2358 1720 c-114 -29 -228 -123 -274 -225 -56 -127 -51 -292 11 -416
33 -64 67 -102 128 -142 142 -93 327 -95 477 -5 115 70 180 188 188 345 13
261 -148 440 -403 449 -49 2 -107 -1 -127 -6z m216 -134 c101 -42 165 -140
171 -262 7 -164 -61 -273 -199 -320 -98 -33 -227 2 -288 79 -51 64 -67 120
-64 227 4 127 34 192 119 252 64 46 183 57 261 24z"/>
<path d="M4234 1721 c-171 -44 -286 -193 -297 -386 -11 -172 60 -331 183 -409
153 -98 369 -73 484 55 20 21 36 33 37 27 0 -7 1 -39 0 -70 l0 -58 72 0 72 0
0 418 0 417 -72 3 -71 2 1 -67 c1 -38 -2 -67 -6 -66 -4 2 -21 18 -38 38 -17
19 -60 49 -96 67 -56 27 -78 32 -152 35 -47 1 -100 -2 -117 -6z m240 -140 c76
-33 144 -120 161 -206 17 -87 -3 -196 -50 -266 -29 -44 -99 -99 -126 -99 -10
0 -20 -4 -23 -8 -9 -15 -107 -13 -163 3 -41 12 -68 29 -103 64 -66 66 -89 131
-86 241 3 93 22 151 71 208 69 82 212 111 319 63z"/>
<path d="M6655 1723 c-49 -12 -105 -45 -138 -83 -21 -22 -37 -34 -38 -28 0 7
-1 34 -1 59 l1 46 -64 2 c-42 1 -66 -3 -72 -11 -4 -7 -8 -196 -8 -420 l0 -408
71 0 71 0 0 260 c1 291 8 333 66 387 41 39 86 56 150 57 l52 2 3 72 3 72 -38
-1 c-21 -1 -47 -4 -58 -6z"/>
<path d="M7169 1716 c-178 -51 -293 -226 -283 -431 7 -158 59 -264 168 -346
148 -112 379 -93 500 42 l36 39 0 -70 0 -70 73 0 72 0 -1 413 c-1 226 -2 416
-3 420 0 4 -33 7 -72 6 l-70 -2 1 -36 c1 -20 2 -51 1 -70 l-1 -35 -35 42 c-21
24 -63 54 -100 73 -54 27 -78 32 -152 35 -54 2 -106 -2 -134 -10z m255 -134
c60 -27 121 -92 145 -156 30 -79 25 -203 -12 -278 -108 -220 -419 -205 -505
23 -40 108 -22 250 43 335 71 93 214 126 329 76z"/>
<path d="M9130 1716 c-111 -32 -205 -107 -247 -197 -68 -144 -63 -328 12 -461
49 -89 160 -167 260 -184 200 -35 384 46 456 201 29 63 28 65 -53 65 l-73 0
-23 -40 c-53 -93 -168 -135 -285 -104 -88 23 -154 84 -181 166 -29 91 -58 83
309 83 179 -1 331 2 337 6 19 12 4 176 -22 244 -32 83 -122 173 -205 205 -73
28 -217 36 -285 16z m205 -119 c53 -18 104 -56 130 -97 26 -41 45 -106 38
-127 -4 -10 -66 -13 -265 -13 l-260 0 7 33 c19 93 94 182 175 206 43 12 134
11 175 -2z"/>
<path d="M10415 1709 c-120 -42 -177 -113 -176 -219 1 -64 9 -87 53 -141 30
-37 190 -105 291 -123 40 -7 117 -48 132 -69 34 -49 7 -120 -58 -153 -45 -24
-142 -22 -199 4 -47 20 -88 69 -88 103 0 14 -13 16 -76 17 l-76 1 7 -37 c9
-52 53 -121 101 -157 120 -92 347 -91 460 1 128 104 103 295 -49 363 -40 17
-134 50 -160 55 -82 16 -168 60 -187 95 -34 65 18 143 103 156 77 12 133 -2
177 -42 24 -21 42 -47 45 -67 l7 -32 66 0 c78 1 83 8 57 87 -21 62 -78 122
-143 151 -72 31 -209 35 -287 7z"/>
<path d="M3000 1711 c0 -6 144 -379 165 -426 7 -16 46 -115 86 -218 l72 -188
85 3 84 3 74 190 c41 105 113 287 159 405 47 119 85 221 85 227 0 8 -23 11
-72 10 l-73 -2 -117 -320 c-64 -176 -122 -333 -128 -350 l-11 -30 -20 55 c-11
30 -27 71 -34 90 -8 19 -51 134 -95 255 -45 121 -88 239 -97 262 l-15 42 -74
-1 c-41 -1 -74 -4 -74 -7z"/>
<path d="M7910 1713 c0 -4 32 -88 71 -187 39 -100 102 -262 141 -361 38 -99
76 -193 83 -210 7 -16 16 -40 20 -52 6 -21 12 -23 89 -23 78 0 83 1 94 24 6
14 72 179 146 368 74 189 143 366 155 395 l20 52 -77 -2 -76 -2 -128 -345
c-70 -190 -127 -347 -128 -350 -1 -6 -28 67 -150 395 -44 121 -88 239 -96 262
l-16 41 -74 1 c-41 0 -74 -2 -74 -6z"/>
</g>
</svg>
